<mxfile host="Electron" agent="Mozilla/5.0 (Macintosh; Intel Mac OS X 10_15_7) AppleWebKit/537.36 (KHTML, like Gecko) draw.io/25.0.2 Chrome/128.0.6613.186 Electron/32.2.5 Safari/537.36" version="25.0.2">
  <diagram id="5M37YtrkBbvKrmDnSc92" name="第 1 页">
    <mxGraphModel dx="1514" dy="797" grid="1" gridSize="10" guides="1" tooltips="1" connect="1" arrows="1" fold="1" page="0" pageScale="1" pageWidth="827" pageHeight="1169" math="0" shadow="0">
      <root>
        <mxCell id="0" />
        <mxCell id="1" parent="0" />
        <mxCell id="GY32eAM_WvHIKndhjNr--37" style="edgeStyle=orthogonalEdgeStyle;rounded=0;orthogonalLoop=1;jettySize=auto;html=1;exitX=0.25;exitY=1;exitDx=0;exitDy=0;entryX=0.5;entryY=0;entryDx=0;entryDy=0;" edge="1" parent="1" source="GY32eAM_WvHIKndhjNr--2" target="GY32eAM_WvHIKndhjNr--16">
          <mxGeometry relative="1" as="geometry" />
        </mxCell>
        <mxCell id="GY32eAM_WvHIKndhjNr--39" style="edgeStyle=orthogonalEdgeStyle;rounded=0;orthogonalLoop=1;jettySize=auto;html=1;exitX=0.5;exitY=1;exitDx=0;exitDy=0;" edge="1" parent="1" source="GY32eAM_WvHIKndhjNr--2" target="GY32eAM_WvHIKndhjNr--26">
          <mxGeometry relative="1" as="geometry" />
        </mxCell>
        <mxCell id="GY32eAM_WvHIKndhjNr--40" style="edgeStyle=orthogonalEdgeStyle;rounded=0;orthogonalLoop=1;jettySize=auto;html=1;exitX=0.75;exitY=1;exitDx=0;exitDy=0;" edge="1" parent="1" source="GY32eAM_WvHIKndhjNr--2" target="GY32eAM_WvHIKndhjNr--17">
          <mxGeometry relative="1" as="geometry" />
        </mxCell>
        <mxCell id="GY32eAM_WvHIKndhjNr--2" value="初始界面" style="rounded=1;whiteSpace=wrap;html=1;" vertex="1" parent="1">
          <mxGeometry x="230" y="20" width="140" height="60" as="geometry" />
        </mxCell>
        <mxCell id="GY32eAM_WvHIKndhjNr--16" value="更多功能..." style="rounded=0;whiteSpace=wrap;html=1;" vertex="1" parent="1">
          <mxGeometry y="150" width="120" height="60" as="geometry" />
        </mxCell>
        <mxCell id="GY32eAM_WvHIKndhjNr--43" style="edgeStyle=orthogonalEdgeStyle;rounded=0;orthogonalLoop=1;jettySize=auto;html=1;exitX=0;exitY=0.5;exitDx=0;exitDy=0;" edge="1" parent="1" source="GY32eAM_WvHIKndhjNr--17" target="GY32eAM_WvHIKndhjNr--26">
          <mxGeometry relative="1" as="geometry" />
        </mxCell>
        <mxCell id="GY32eAM_WvHIKndhjNr--17" value="开始" style="rounded=0;whiteSpace=wrap;html=1;" vertex="1" parent="1">
          <mxGeometry x="495" y="150" width="130" height="60" as="geometry" />
        </mxCell>
        <mxCell id="GY32eAM_WvHIKndhjNr--30" style="edgeStyle=orthogonalEdgeStyle;rounded=0;orthogonalLoop=1;jettySize=auto;html=1;exitX=1;exitY=0.5;exitDx=0;exitDy=0;entryX=0;entryY=0.5;entryDx=0;entryDy=0;" edge="1" parent="1" source="GY32eAM_WvHIKndhjNr--31" target="GY32eAM_WvHIKndhjNr--19">
          <mxGeometry relative="1" as="geometry" />
        </mxCell>
        <mxCell id="GY32eAM_WvHIKndhjNr--48" value="" style="edgeStyle=orthogonalEdgeStyle;rounded=0;orthogonalLoop=1;jettySize=auto;html=1;" edge="1" parent="1" source="GY32eAM_WvHIKndhjNr--18" target="GY32eAM_WvHIKndhjNr--47">
          <mxGeometry relative="1" as="geometry" />
        </mxCell>
        <mxCell id="GY32eAM_WvHIKndhjNr--18" value="登陆" style="rounded=0;whiteSpace=wrap;html=1;" vertex="1" parent="1">
          <mxGeometry x="460" y="275" width="120" height="60" as="geometry" />
        </mxCell>
        <mxCell id="GY32eAM_WvHIKndhjNr--55" style="edgeStyle=orthogonalEdgeStyle;rounded=0;orthogonalLoop=1;jettySize=auto;html=1;exitX=0.5;exitY=0;exitDx=0;exitDy=0;entryX=0.5;entryY=0;entryDx=0;entryDy=0;" edge="1" parent="1" source="GY32eAM_WvHIKndhjNr--19" target="GY32eAM_WvHIKndhjNr--18">
          <mxGeometry relative="1" as="geometry" />
        </mxCell>
        <mxCell id="GY32eAM_WvHIKndhjNr--19" value="注册" style="rounded=0;whiteSpace=wrap;html=1;" vertex="1" parent="1">
          <mxGeometry x="730" y="275" width="120" height="60" as="geometry" />
        </mxCell>
        <mxCell id="GY32eAM_WvHIKndhjNr--44" style="edgeStyle=orthogonalEdgeStyle;rounded=0;orthogonalLoop=1;jettySize=auto;html=1;exitX=1;exitY=0.5;exitDx=0;exitDy=0;" edge="1" parent="1" source="GY32eAM_WvHIKndhjNr--26" target="GY32eAM_WvHIKndhjNr--18">
          <mxGeometry relative="1" as="geometry" />
        </mxCell>
        <mxCell id="GY32eAM_WvHIKndhjNr--45" value="否" style="edgeLabel;html=1;align=center;verticalAlign=middle;resizable=0;points=[];" vertex="1" connectable="0" parent="GY32eAM_WvHIKndhjNr--44">
          <mxGeometry x="-0.15" relative="1" as="geometry">
            <mxPoint as="offset" />
          </mxGeometry>
        </mxCell>
        <mxCell id="GY32eAM_WvHIKndhjNr--46" value="是" style="edgeStyle=orthogonalEdgeStyle;rounded=0;orthogonalLoop=1;jettySize=auto;html=1;exitX=0.5;exitY=1;exitDx=0;exitDy=0;entryX=0.5;entryY=0;entryDx=0;entryDy=0;" edge="1" parent="1" source="GY32eAM_WvHIKndhjNr--26" target="GY32eAM_WvHIKndhjNr--34">
          <mxGeometry relative="1" as="geometry" />
        </mxCell>
        <mxCell id="GY32eAM_WvHIKndhjNr--26" value="token" style="rhombus;whiteSpace=wrap;html=1;rounded=0;" vertex="1" parent="1">
          <mxGeometry x="220" y="270" width="160" height="70" as="geometry" />
        </mxCell>
        <mxCell id="GY32eAM_WvHIKndhjNr--32" value="" style="edgeStyle=orthogonalEdgeStyle;rounded=0;orthogonalLoop=1;jettySize=auto;html=1;exitX=1;exitY=0.5;exitDx=0;exitDy=0;entryX=0;entryY=0.5;entryDx=0;entryDy=0;" edge="1" parent="1" source="GY32eAM_WvHIKndhjNr--18" target="GY32eAM_WvHIKndhjNr--31">
          <mxGeometry relative="1" as="geometry">
            <mxPoint x="537" y="280" as="sourcePoint" />
            <mxPoint x="697" y="280" as="targetPoint" />
          </mxGeometry>
        </mxCell>
        <mxCell id="GY32eAM_WvHIKndhjNr--31" value="注册link" style="text;html=1;align=center;verticalAlign=middle;resizable=0;points=[];autosize=1;strokeColor=none;fillColor=none;" vertex="1" parent="1">
          <mxGeometry x="630" y="290" width="70" height="30" as="geometry" />
        </mxCell>
        <mxCell id="GY32eAM_WvHIKndhjNr--62" style="edgeStyle=orthogonalEdgeStyle;rounded=0;orthogonalLoop=1;jettySize=auto;html=1;exitX=0.25;exitY=1;exitDx=0;exitDy=0;" edge="1" parent="1" source="GY32eAM_WvHIKndhjNr--34" target="GY32eAM_WvHIKndhjNr--57">
          <mxGeometry relative="1" as="geometry" />
        </mxCell>
        <mxCell id="GY32eAM_WvHIKndhjNr--63" style="edgeStyle=orthogonalEdgeStyle;rounded=0;orthogonalLoop=1;jettySize=auto;html=1;exitX=0.75;exitY=1;exitDx=0;exitDy=0;" edge="1" parent="1" source="GY32eAM_WvHIKndhjNr--34" target="GY32eAM_WvHIKndhjNr--58">
          <mxGeometry relative="1" as="geometry" />
        </mxCell>
        <mxCell id="GY32eAM_WvHIKndhjNr--65" value="" style="edgeStyle=orthogonalEdgeStyle;rounded=0;orthogonalLoop=1;jettySize=auto;html=1;" edge="1" parent="1" source="GY32eAM_WvHIKndhjNr--34" target="GY32eAM_WvHIKndhjNr--64">
          <mxGeometry relative="1" as="geometry" />
        </mxCell>
        <mxCell id="GY32eAM_WvHIKndhjNr--34" value="homepage" style="whiteSpace=wrap;html=1;rounded=0;" vertex="1" parent="1">
          <mxGeometry x="240" y="470" width="120" height="60" as="geometry" />
        </mxCell>
        <mxCell id="GY32eAM_WvHIKndhjNr--49" style="edgeStyle=orthogonalEdgeStyle;rounded=0;orthogonalLoop=1;jettySize=auto;html=1;exitX=0.5;exitY=1;exitDx=0;exitDy=0;entryX=1;entryY=0.5;entryDx=0;entryDy=0;" edge="1" parent="1" source="GY32eAM_WvHIKndhjNr--47" target="GY32eAM_WvHIKndhjNr--34">
          <mxGeometry relative="1" as="geometry" />
        </mxCell>
        <mxCell id="GY32eAM_WvHIKndhjNr--50" value="yes" style="edgeLabel;html=1;align=center;verticalAlign=middle;resizable=0;points=[];" vertex="1" connectable="0" parent="GY32eAM_WvHIKndhjNr--49">
          <mxGeometry x="0.15" y="-4" relative="1" as="geometry">
            <mxPoint as="offset" />
          </mxGeometry>
        </mxCell>
        <mxCell id="GY32eAM_WvHIKndhjNr--51" style="edgeStyle=orthogonalEdgeStyle;rounded=0;orthogonalLoop=1;jettySize=auto;html=1;exitX=1;exitY=0.5;exitDx=0;exitDy=0;entryX=1;entryY=1;entryDx=0;entryDy=0;" edge="1" parent="1" source="GY32eAM_WvHIKndhjNr--47" target="GY32eAM_WvHIKndhjNr--18">
          <mxGeometry relative="1" as="geometry" />
        </mxCell>
        <mxCell id="GY32eAM_WvHIKndhjNr--53" value="no" style="edgeLabel;html=1;align=center;verticalAlign=middle;resizable=0;points=[];" vertex="1" connectable="0" parent="GY32eAM_WvHIKndhjNr--51">
          <mxGeometry x="-0.0383" y="1" relative="1" as="geometry">
            <mxPoint as="offset" />
          </mxGeometry>
        </mxCell>
        <mxCell id="GY32eAM_WvHIKndhjNr--47" value="success" style="rhombus;whiteSpace=wrap;html=1;rounded=0;" vertex="1" parent="1">
          <mxGeometry x="480" y="405" width="80" height="55" as="geometry" />
        </mxCell>
        <mxCell id="GY32eAM_WvHIKndhjNr--72" value="" style="edgeStyle=orthogonalEdgeStyle;rounded=0;orthogonalLoop=1;jettySize=auto;html=1;" edge="1" parent="1" source="GY32eAM_WvHIKndhjNr--57" target="GY32eAM_WvHIKndhjNr--71">
          <mxGeometry relative="1" as="geometry" />
        </mxCell>
        <mxCell id="GY32eAM_WvHIKndhjNr--57" value="movie Library" style="whiteSpace=wrap;html=1;rounded=0;" vertex="1" parent="1">
          <mxGeometry x="-40" y="625" width="120" height="60" as="geometry" />
        </mxCell>
        <mxCell id="GY32eAM_WvHIKndhjNr--82" value="" style="edgeStyle=orthogonalEdgeStyle;rounded=0;orthogonalLoop=1;jettySize=auto;html=1;" edge="1" parent="1" source="GY32eAM_WvHIKndhjNr--58" target="GY32eAM_WvHIKndhjNr--81">
          <mxGeometry relative="1" as="geometry" />
        </mxCell>
        <mxCell id="GY32eAM_WvHIKndhjNr--87" value="" style="edgeStyle=orthogonalEdgeStyle;rounded=0;orthogonalLoop=1;jettySize=auto;html=1;" edge="1" parent="1" source="GY32eAM_WvHIKndhjNr--58" target="GY32eAM_WvHIKndhjNr--86">
          <mxGeometry relative="1" as="geometry" />
        </mxCell>
        <mxCell id="GY32eAM_WvHIKndhjNr--58" value="个人中心" style="whiteSpace=wrap;html=1;rounded=0;" vertex="1" parent="1">
          <mxGeometry x="460" y="625" width="120" height="60" as="geometry" />
        </mxCell>
        <mxCell id="GY32eAM_WvHIKndhjNr--80" style="edgeStyle=orthogonalEdgeStyle;rounded=0;orthogonalLoop=1;jettySize=auto;html=1;exitX=0.5;exitY=1;exitDx=0;exitDy=0;" edge="1" parent="1" source="GY32eAM_WvHIKndhjNr--59" target="GY32eAM_WvHIKndhjNr--79">
          <mxGeometry relative="1" as="geometry" />
        </mxCell>
        <mxCell id="GY32eAM_WvHIKndhjNr--59" value="recommend movies" style="whiteSpace=wrap;html=1;rounded=0;" vertex="1" parent="1">
          <mxGeometry x="240" y="747.5" width="120" height="60" as="geometry" />
        </mxCell>
        <mxCell id="GY32eAM_WvHIKndhjNr--66" value="否" style="edgeStyle=orthogonalEdgeStyle;rounded=0;orthogonalLoop=1;jettySize=auto;html=1;exitX=0;exitY=0.5;exitDx=0;exitDy=0;entryX=1;entryY=0.5;entryDx=0;entryDy=0;" edge="1" parent="1" source="GY32eAM_WvHIKndhjNr--64" target="GY32eAM_WvHIKndhjNr--57">
          <mxGeometry relative="1" as="geometry" />
        </mxCell>
        <mxCell id="GY32eAM_WvHIKndhjNr--67" style="edgeStyle=orthogonalEdgeStyle;rounded=0;orthogonalLoop=1;jettySize=auto;html=1;exitX=0.5;exitY=1;exitDx=0;exitDy=0;" edge="1" parent="1" source="GY32eAM_WvHIKndhjNr--64" target="GY32eAM_WvHIKndhjNr--59">
          <mxGeometry relative="1" as="geometry" />
        </mxCell>
        <mxCell id="GY32eAM_WvHIKndhjNr--78" value="是" style="edgeLabel;html=1;align=center;verticalAlign=middle;resizable=0;points=[];" vertex="1" connectable="0" parent="GY32eAM_WvHIKndhjNr--67">
          <mxGeometry x="-0.168" y="1" relative="1" as="geometry">
            <mxPoint as="offset" />
          </mxGeometry>
        </mxCell>
        <mxCell id="GY32eAM_WvHIKndhjNr--64" value="是否已有推荐数据" style="rhombus;whiteSpace=wrap;html=1;rounded=0;" vertex="1" parent="1">
          <mxGeometry x="245" y="625" width="110" height="60" as="geometry" />
        </mxCell>
        <mxCell id="GY32eAM_WvHIKndhjNr--71" value="movieItem" style="ellipse;whiteSpace=wrap;html=1;rounded=0;" vertex="1" parent="1">
          <mxGeometry x="-220" y="615" width="80" height="80" as="geometry" />
        </mxCell>
        <mxCell id="GY32eAM_WvHIKndhjNr--79" value="movieItem" style="ellipse;whiteSpace=wrap;html=1;rounded=0;" vertex="1" parent="1">
          <mxGeometry x="260" y="850" width="80" height="80" as="geometry" />
        </mxCell>
        <mxCell id="GY32eAM_WvHIKndhjNr--85" style="edgeStyle=orthogonalEdgeStyle;rounded=0;orthogonalLoop=1;jettySize=auto;html=1;exitX=1;exitY=0.5;exitDx=0;exitDy=0;" edge="1" parent="1" source="GY32eAM_WvHIKndhjNr--81" target="GY32eAM_WvHIKndhjNr--83">
          <mxGeometry relative="1" as="geometry" />
        </mxCell>
        <mxCell id="GY32eAM_WvHIKndhjNr--81" value="头像" style="ellipse;whiteSpace=wrap;html=1;rounded=0;" vertex="1" parent="1">
          <mxGeometry x="680" y="615" width="80" height="80" as="geometry" />
        </mxCell>
        <mxCell id="GY32eAM_WvHIKndhjNr--83" value="邮箱密码" style="ellipse;whiteSpace=wrap;html=1;rounded=0;" vertex="1" parent="1">
          <mxGeometry x="830" y="615" width="80" height="80" as="geometry" />
        </mxCell>
        <mxCell id="GY32eAM_WvHIKndhjNr--89" style="edgeStyle=orthogonalEdgeStyle;rounded=0;orthogonalLoop=1;jettySize=auto;html=1;exitX=0.5;exitY=1;exitDx=0;exitDy=0;" edge="1" parent="1" source="GY32eAM_WvHIKndhjNr--86" target="GY32eAM_WvHIKndhjNr--88">
          <mxGeometry relative="1" as="geometry" />
        </mxCell>
        <mxCell id="GY32eAM_WvHIKndhjNr--86" value="看过列表" style="whiteSpace=wrap;html=1;rounded=0;" vertex="1" parent="1">
          <mxGeometry x="460" y="750" width="120" height="60" as="geometry" />
        </mxCell>
        <mxCell id="GY32eAM_WvHIKndhjNr--88" value="movieItem" style="ellipse;whiteSpace=wrap;html=1;rounded=0;" vertex="1" parent="1">
          <mxGeometry x="480" y="850" width="80" height="80" as="geometry" />
        </mxCell>
      </root>
    </mxGraphModel>
  </diagram>
</mxfile>
